<svg xmlns="http://www.w3.org/2000/svg" viewBox="0 0 367.34 45.6"><defs><style>.cls-1{fill:#656c73;}.cls-2{fill:#ea4335;}.cls-3{fill:#4285f4;}.cls-4{fill:#fbbc04;}.cls-5{fill:#0f9d58;}</style></defs><g id="Capa_2" data-name="Capa 2"><g id="Layer_1" data-name="Layer 1"><path class="cls-1" d="M69.37,21.16a9.57,9.57,0,0,1-3.6-3.6,10,10,0,0,1-1.32-5.07,10,10,0,0,1,1.32-5.06,9.57,9.57,0,0,1,3.6-3.6,9.82,9.82,0,0,1,5-1.31,10.49,10.49,0,0,1,4,.75,8,8,0,0,1,3,2.1L79.73,7a5.9,5.9,0,0,0-2.34-1.72,7.79,7.79,0,0,0-3-.6,7.7,7.7,0,0,0-3.75,1,7.53,7.53,0,0,0-2.8,2.75,7.88,7.88,0,0,0-1.05,4.09,7.89,7.89,0,0,0,1.05,4.08,7.49,7.49,0,0,0,2.8,2.76,8.18,8.18,0,0,0,7,.38,7.57,7.57,0,0,0,2.26-1.59,6,6,0,0,0,1.12-1.81,7.55,7.55,0,0,0,.5-2.32h-7V11.88h9.18a8.88,8.88,0,0,1,.13,1.39,10.75,10.75,0,0,1-.56,3.42,7.48,7.48,0,0,1-1.79,2.92,9.17,9.17,0,0,1-7,2.86A9.82,9.82,0,0,1,69.37,21.16Z"/><path class="cls-1" d="M88.69,21.55A6.43,6.43,0,0,1,86.27,19a7.4,7.4,0,0,1-.86-3.58,7.44,7.44,0,0,1,.86-3.59,6.4,6.4,0,0,1,2.42-2.53,6.62,6.62,0,0,1,3.49-.92,6.72,6.72,0,0,1,3.51.92,6.4,6.4,0,0,1,2.42,2.53A7.45,7.45,0,0,1,99,15.43,7.41,7.41,0,0,1,98.11,19a6.43,6.43,0,0,1-2.42,2.54,6.81,6.81,0,0,1-3.51.92A6.71,6.71,0,0,1,88.69,21.55Zm5.73-1.75a4.45,4.45,0,0,0,1.66-1.75,5.29,5.29,0,0,0,.63-2.62,5.33,5.33,0,0,0-.63-2.63,4.52,4.52,0,0,0-1.66-1.75,4.41,4.41,0,0,0-2.24-.61,4.35,4.35,0,0,0-2.21.61A4.54,4.54,0,0,0,88.3,12.8a5.33,5.33,0,0,0-.63,2.63,5.29,5.29,0,0,0,.63,2.62A4.47,4.47,0,0,0,90,19.8a4.26,4.26,0,0,0,2.21.61A4.31,4.31,0,0,0,94.42,19.8Z"/><path class="cls-1" d="M103.8,21.55A6.48,6.48,0,0,1,101.39,19a7.41,7.41,0,0,1-.87-3.58,7.45,7.45,0,0,1,.87-3.59,6.45,6.45,0,0,1,2.41-2.53,7.12,7.12,0,0,1,7,0,6.43,6.43,0,0,1,2.43,2.53,7.45,7.45,0,0,1,.87,3.59,7.41,7.41,0,0,1-.87,3.58,6.45,6.45,0,0,1-2.43,2.54,7.12,7.12,0,0,1-7,0Zm5.74-1.75a4.45,4.45,0,0,0,1.66-1.75,5.29,5.29,0,0,0,.63-2.62,5.33,5.33,0,0,0-.63-2.63,4.52,4.52,0,0,0-1.66-1.75,4.38,4.38,0,0,0-4.46,0,4.59,4.59,0,0,0-1.66,1.75,5.33,5.33,0,0,0-.63,2.63,5.29,5.29,0,0,0,.63,2.62,4.52,4.52,0,0,0,1.66,1.75,4.38,4.38,0,0,0,4.46,0Z"/><path class="cls-1" d="M118.28,27.08a5.72,5.72,0,0,1-2-2.67l2.11-.88a3.76,3.76,0,0,0,1.42,1.91,4.09,4.09,0,0,0,2.44.73A4.16,4.16,0,0,0,125.44,25a4.81,4.81,0,0,0,1.14-3.42V20.12h-.11a4.92,4.92,0,0,1-1.84,1.68,5.56,5.56,0,0,1-2.72.67,5.79,5.79,0,0,1-3.12-.91A6.57,6.57,0,0,1,116.5,19a7.55,7.55,0,0,1-.86-3.61,7.59,7.59,0,0,1,.86-3.62,6.47,6.47,0,0,1,2.29-2.51,5.7,5.7,0,0,1,3.12-.91,5.56,5.56,0,0,1,2.72.66,5.09,5.09,0,0,1,1.84,1.68h.11V8.81h2.18v12.7a7.44,7.44,0,0,1-.85,3.7,5.41,5.41,0,0,1-2.35,2.27,7.35,7.35,0,0,1-3.36.75A6.38,6.38,0,0,1,118.28,27.08Zm6.14-7.27A4.43,4.43,0,0,0,126,18.08a5.54,5.54,0,0,0,.6-2.65,5.65,5.65,0,0,0-.6-2.67A4.29,4.29,0,0,0,124.42,11a4.17,4.17,0,0,0-2.16-.59,4,4,0,0,0-2.16.6,4.44,4.44,0,0,0-1.59,1.73,5.58,5.58,0,0,0-.6,2.66,5.54,5.54,0,0,0,.6,2.65,4.37,4.37,0,0,0,1.59,1.73,4,4,0,0,0,2.16.6A4.09,4.09,0,0,0,124.42,19.81Z"/><path class="cls-1" d="M131.46,3h2.26V22h-2.26Z"/><path class="cls-1" d="M139.1,21.56a6.28,6.28,0,0,1-2.36-2.51,7.53,7.53,0,0,1-.86-3.62,7.93,7.93,0,0,1,.8-3.54A6.42,6.42,0,0,1,139,9.33a6.18,6.18,0,0,1,3.4-.94,6.56,6.56,0,0,1,3.38.86A5.77,5.77,0,0,1,148,11.69a8.08,8.08,0,0,1,.78,3.63,1.62,1.62,0,0,1-.06.53h-10.5a4.73,4.73,0,0,0,.72,2.52,4.28,4.28,0,0,0,1.66,1.54,4.51,4.51,0,0,0,2.07.5A4.23,4.23,0,0,0,146.5,18l2,1a6.87,6.87,0,0,1-2.36,2.57,7,7,0,0,1-7,.07Zm7.24-7.6a4.22,4.22,0,0,0-.46-1.6A3.41,3.41,0,0,0,144.59,11a4.22,4.22,0,0,0-2.25-.56,3.83,3.83,0,0,0-2.62,1A4.27,4.27,0,0,0,138.34,14Z"/><path class="cls-1" d="M157.43,3h5.76a10.39,10.39,0,0,1,5.12,1.21,8.45,8.45,0,0,1,3.36,3.37,10.27,10.27,0,0,1,1.17,5,10.24,10.24,0,0,1-1.17,5,8.47,8.47,0,0,1-3.36,3.38A10.39,10.39,0,0,1,163.19,22h-5.76Zm5.76,16.93a7.32,7.32,0,0,0,5.37-1.95,7.27,7.27,0,0,0,2-5.44,7.3,7.3,0,0,0-2-5.44,7.36,7.36,0,0,0-5.37-1.94h-3.52V19.88Z"/><path class="cls-1" d="M178,21.56a6.35,6.35,0,0,1-2.36-2.51,7.53,7.53,0,0,1-.85-3.62,7.8,7.8,0,0,1,.8-3.54,6.28,6.28,0,0,1,2.28-2.56,6.16,6.16,0,0,1,3.4-.94,6.52,6.52,0,0,1,3.37.86,5.79,5.79,0,0,1,2.23,2.44,8.21,8.21,0,0,1,.77,3.63,2.07,2.07,0,0,1,0,.53H177.08a4.92,4.92,0,0,0,.72,2.52,4.31,4.31,0,0,0,1.67,1.54,4.44,4.44,0,0,0,2.06.5A4.23,4.23,0,0,0,185.4,18l2,1A6.87,6.87,0,0,1,185,21.49a7,7,0,0,1-7,.07Zm7.24-7.6a4.38,4.38,0,0,0-.45-1.6,3.44,3.44,0,0,0-1.3-1.36,4.17,4.17,0,0,0-2.25-.56,3.83,3.83,0,0,0-2.61,1A4.34,4.34,0,0,0,177.24,14Z"/><path class="cls-1" d="M188.17,8.81h2.46l4.05,10.56h0l4.14-10.56h2.37L195.83,22h-2.3Z"/><path class="cls-1" d="M205.39,21.56A6.28,6.28,0,0,1,203,19.05a7.53,7.53,0,0,1-.86-3.62,7.93,7.93,0,0,1,.8-3.54,6.42,6.42,0,0,1,2.28-2.56,6.18,6.18,0,0,1,3.4-.94,6.56,6.56,0,0,1,3.38.86,5.7,5.7,0,0,1,2.22,2.44,8.08,8.08,0,0,1,.78,3.63,1.62,1.62,0,0,1-.06.53h-10.5a4.73,4.73,0,0,0,.72,2.52,4.28,4.28,0,0,0,1.66,1.54,4.51,4.51,0,0,0,2.07.5A4.23,4.23,0,0,0,212.79,18l2,1a6.87,6.87,0,0,1-2.36,2.57,7,7,0,0,1-7,.07Zm7.24-7.6a4.22,4.22,0,0,0-.46-1.6A3.41,3.41,0,0,0,210.88,11a4.22,4.22,0,0,0-2.25-.56,3.83,3.83,0,0,0-2.62,1A4.27,4.27,0,0,0,204.63,14Z"/><path class="cls-1" d="M217.32,3h2.26V22h-2.26Z"/><path class="cls-1" d="M225,21.55A6.43,6.43,0,0,1,222.61,19a7.4,7.4,0,0,1-.86-3.58,7.44,7.44,0,0,1,.86-3.59A6.4,6.4,0,0,1,225,9.31a6.62,6.62,0,0,1,3.49-.92,6.72,6.72,0,0,1,3.51.92,6.4,6.4,0,0,1,2.42,2.53,7.45,7.45,0,0,1,.87,3.59,7.41,7.41,0,0,1-.87,3.58A6.43,6.43,0,0,1,232,21.55a6.81,6.81,0,0,1-3.51.92A6.71,6.71,0,0,1,225,21.55Zm5.73-1.75a4.45,4.45,0,0,0,1.66-1.75,5.29,5.29,0,0,0,.63-2.62,5.33,5.33,0,0,0-.63-2.63,4.52,4.52,0,0,0-1.66-1.75,4.41,4.41,0,0,0-2.24-.61,4.35,4.35,0,0,0-2.21.61,4.54,4.54,0,0,0-1.67,1.75,5.33,5.33,0,0,0-.63,2.63,5.29,5.29,0,0,0,.63,2.62,4.47,4.47,0,0,0,1.67,1.75,4.26,4.26,0,0,0,2.21.61A4.31,4.31,0,0,0,230.76,19.8Z"/><path class="cls-1" d="M237.37,8.81h2.16v1.95h.11a5.12,5.12,0,0,1,1.84-1.69,5.44,5.44,0,0,1,2.77-.68,5.68,5.68,0,0,1,3.15.92,6.57,6.57,0,0,1,2.29,2.52,7.48,7.48,0,0,1,.85,3.6,7.53,7.53,0,0,1-.85,3.6,6.72,6.72,0,0,1-2.29,2.52,5.76,5.76,0,0,1-3.15.92,5.65,5.65,0,0,1-2.79-.68,4.88,4.88,0,0,1-1.82-1.72h-.11l.11,1.84V27.8h-2.27Zm8.71,11a4.38,4.38,0,0,0,1.6-1.75,5.5,5.5,0,0,0,.6-2.62,5.55,5.55,0,0,0-.6-2.63,4.45,4.45,0,0,0-1.6-1.75,4.21,4.21,0,0,0-4.35,0,4.4,4.4,0,0,0-1.6,1.73,5.61,5.61,0,0,0-.6,2.66,5.64,5.64,0,0,0,.6,2.64,4.36,4.36,0,0,0,1.6,1.74,4.16,4.16,0,0,0,2.18.6A4.07,4.07,0,0,0,246.08,19.8Z"/><path class="cls-1" d="M255.84,21.56a6.28,6.28,0,0,1-2.36-2.51,7.53,7.53,0,0,1-.86-3.62,7.93,7.93,0,0,1,.8-3.54,6.42,6.42,0,0,1,2.28-2.56,6.18,6.18,0,0,1,3.4-.94,6.56,6.56,0,0,1,3.38.86,5.7,5.7,0,0,1,2.22,2.44,8.08,8.08,0,0,1,.78,3.63,1.62,1.62,0,0,1-.06.53h-10.5a4.73,4.73,0,0,0,.72,2.52,4.28,4.28,0,0,0,1.66,1.54,4.51,4.51,0,0,0,2.07.5A4.23,4.23,0,0,0,263.24,18l2,1a6.87,6.87,0,0,1-2.36,2.57,7,7,0,0,1-7,.07Zm7.24-7.6a4.22,4.22,0,0,0-.46-1.6A3.34,3.34,0,0,0,261.33,11a4.22,4.22,0,0,0-2.25-.56,3.83,3.83,0,0,0-2.62,1A4.33,4.33,0,0,0,255.08,14Z"/><path class="cls-1" d="M267.77,8.81h2.16V11H270a3.62,3.62,0,0,1,1.53-1.84,4.28,4.28,0,0,1,2.31-.74,4.82,4.82,0,0,1,1.54.24v2.45a3.77,3.77,0,0,0-1.86-.4,3,3,0,0,0-1.75.55,3.94,3.94,0,0,0-1.29,1.45,4.2,4.2,0,0,0-.48,2V22h-2.27Z"/><path class="cls-1" d="M287.09,21.16a9.57,9.57,0,0,1-3.6-3.6,10,10,0,0,1-1.32-5.07,10,10,0,0,1,1.32-5.06,9.57,9.57,0,0,1,3.6-3.6,9.85,9.85,0,0,1,5-1.31,10.41,10.41,0,0,1,4,.75,8,8,0,0,1,3.06,2.1L297.45,7a5.87,5.87,0,0,0-2.33-1.72,7.84,7.84,0,0,0-3.06-.6,7.64,7.64,0,0,0-3.74,1,7.39,7.39,0,0,0-2.8,2.75,7.79,7.79,0,0,0-1.06,4.09,7.81,7.81,0,0,0,1.06,4.08,7.34,7.34,0,0,0,2.8,2.76,7.54,7.54,0,0,0,3.74,1,7.68,7.68,0,0,0,3.22-.6,7.52,7.52,0,0,0,2.25-1.59,6,6,0,0,0,1.12-1.81,7.86,7.86,0,0,0,.51-2.32h-7V11.88h9.17a7.82,7.82,0,0,1,.13,1.39,10.48,10.48,0,0,1-.56,3.42,7.57,7.57,0,0,1-1.78,2.92,9.2,9.2,0,0,1-7,2.86A9.85,9.85,0,0,1,287.09,21.16Z"/><path class="cls-1" d="M304,8.81h2.16V11h.1a3.6,3.6,0,0,1,1.54-1.84,4.28,4.28,0,0,1,2.3-.74,4.89,4.89,0,0,1,1.55.24v2.45a3.79,3.79,0,0,0-1.87-.4,3,3,0,0,0-1.74.55,3.88,3.88,0,0,0-1.3,1.45,4.2,4.2,0,0,0-.48,2V22H304Z"/><path class="cls-1" d="M315.23,21.55A6.48,6.48,0,0,1,312.82,19a7.41,7.41,0,0,1-.87-3.58,7.45,7.45,0,0,1,.87-3.59,6.45,6.45,0,0,1,2.41-2.53,7.12,7.12,0,0,1,7,0,6.43,6.43,0,0,1,2.43,2.53,7.45,7.45,0,0,1,.87,3.59,7.41,7.41,0,0,1-.87,3.58,6.45,6.45,0,0,1-2.43,2.54,7.12,7.12,0,0,1-7,0ZM321,19.8a4.45,4.45,0,0,0,1.66-1.75,5.29,5.29,0,0,0,.63-2.62,5.33,5.33,0,0,0-.63-2.63A4.52,4.52,0,0,0,321,11.05a4.38,4.38,0,0,0-4.46,0,4.59,4.59,0,0,0-1.66,1.75,5.33,5.33,0,0,0-.63,2.63,5.29,5.29,0,0,0,.63,2.62,4.52,4.52,0,0,0,1.66,1.75,4.38,4.38,0,0,0,4.46,0Z"/><path class="cls-1" d="M328.85,21.05a5.64,5.64,0,0,1-1.27-3.92V8.81h2.27v8a3.8,3.8,0,0,0,.86,2.8,3.33,3.33,0,0,0,2.44.85,3.25,3.25,0,0,0,2-.61,4.05,4.05,0,0,0,1.32-1.6,4.83,4.83,0,0,0,.47-2.08V8.81h2.24V22H337v-2h-.1a4.79,4.79,0,0,1-1.78,1.7,4.89,4.89,0,0,1-2.54.7A4.7,4.7,0,0,1,328.85,21.05Z"/><path class="cls-1" d="M342.09,8.81h2.16v1.95h.1a5.12,5.12,0,0,1,1.84-1.69A5.48,5.48,0,0,1,349,8.39a5.67,5.67,0,0,1,3.14.92,6.6,6.6,0,0,1,2.3,2.52,7.59,7.59,0,0,1,.85,3.6,7.65,7.65,0,0,1-.85,3.6,6.74,6.74,0,0,1-2.3,2.52,5.75,5.75,0,0,1-3.14.92,5.65,5.65,0,0,1-2.79-.68,4.84,4.84,0,0,1-1.83-1.72h-.1l.1,1.84V27.8h-2.26Zm8.7,11a4.38,4.38,0,0,0,1.6-1.75,5.5,5.5,0,0,0,.6-2.62,5.55,5.55,0,0,0-.6-2.63,4.45,4.45,0,0,0-1.6-1.75,4.19,4.19,0,0,0-4.34,0,4.33,4.33,0,0,0-1.6,1.73,5.61,5.61,0,0,0-.6,2.66,5.64,5.64,0,0,0,.6,2.64,4.29,4.29,0,0,0,1.6,1.74,4.13,4.13,0,0,0,2.17.6A4.07,4.07,0,0,0,350.79,19.8Z"/><path class="cls-1" d="M358.51,21.4a5.65,5.65,0,0,1-2.05-2.64l2-.88A4,4,0,0,0,360,19.8a3.6,3.6,0,0,0,2.11.67,3.73,3.73,0,0,0,2.12-.56,1.61,1.61,0,0,0,.84-1.36,1.55,1.55,0,0,0-.62-1.28,5.69,5.69,0,0,0-2.15-.88l-1.81-.46a5.77,5.77,0,0,1-2.55-1.25,3,3,0,0,1-1.05-2.4,3.22,3.22,0,0,1,.71-2.11,4.35,4.35,0,0,1,1.88-1.33A7,7,0,0,1,362,8.39a6.27,6.27,0,0,1,3.11.78,4.45,4.45,0,0,1,2,2.23l-2,.85a2.87,2.87,0,0,0-1.29-1.41,4.17,4.17,0,0,0-1.94-.45,3.65,3.65,0,0,0-1.88.5,1.51,1.51,0,0,0-.84,1.31,1.26,1.26,0,0,0,.55,1.09,5.27,5.27,0,0,0,1.75.72l2,.48A6.21,6.21,0,0,1,366.37,16a3.34,3.34,0,0,1,1,2.39,3.49,3.49,0,0,1-.67,2.08,4.36,4.36,0,0,1-1.86,1.46,6.62,6.62,0,0,1-2.73.54A5.92,5.92,0,0,1,358.51,21.4Z"/><path class="cls-1" d="M66.66,45.22a4.21,4.21,0,0,1-1.47-1.09,4.34,4.34,0,0,1-.93-1.75l1.35-.55a3.5,3.5,0,0,0,1,1.74,2.61,2.61,0,0,0,1.78.68,2.78,2.78,0,0,0,1.76-.55,1.84,1.84,0,0,0,.71-1.52,1.75,1.75,0,0,0-.6-1.37,6,6,0,0,0-2-1l-.74-.26a5.93,5.93,0,0,1-2.06-1.18,2.61,2.61,0,0,1-.8-2,2.83,2.83,0,0,1,.47-1.57,3.42,3.42,0,0,1,1.28-1.16,4.32,4.32,0,0,1,3.65,0,3.76,3.76,0,0,1,1.23.93A3.18,3.18,0,0,1,72,35.57l-1.31.57A2.23,2.23,0,0,0,69.89,35a2.3,2.3,0,0,0-1.54-.49,2.44,2.44,0,0,0-1.56.51,1.6,1.6,0,0,0-.65,1.3,1.37,1.37,0,0,0,.55,1.13,5.31,5.31,0,0,0,1.66.82l.76.27a6.39,6.39,0,0,1,2.36,1.37,3,3,0,0,1,.86,2.23,3.14,3.14,0,0,1-.59,1.93,3.42,3.42,0,0,1-1.49,1.14,4.89,4.89,0,0,1-1.85.37A4.23,4.23,0,0,1,66.66,45.22Z"/><path class="cls-1" d="M75.62,45a3.92,3.92,0,0,1-1.46-1.56,4.63,4.63,0,0,1-.54-2.26,4.89,4.89,0,0,1,.5-2.19,4,4,0,0,1,1.42-1.6,3.86,3.86,0,0,1,2.12-.59,4.05,4.05,0,0,1,2.1.54,3.57,3.57,0,0,1,1.38,1.52,5.08,5.08,0,0,1,.48,2.26,1.31,1.31,0,0,1,0,.33H75.05a3,3,0,0,0,.45,1.57,2.7,2.7,0,0,0,1,1,2.79,2.79,0,0,0,1.28.32,2.65,2.65,0,0,0,2.41-1.53l1.24.6A4.19,4.19,0,0,1,80,45a4.36,4.36,0,0,1-4.38,0Zm4.51-4.73a2.64,2.64,0,0,0-.28-1,2.12,2.12,0,0,0-.81-.85,2.62,2.62,0,0,0-1.4-.35,2.4,2.4,0,0,0-1.63.6,2.71,2.71,0,0,0-.86,1.59Z"/><path class="cls-1" d="M82.12,37.1h1.53l2.52,6.57h0l2.57-6.57h1.48l-3.37,8.23H85.46Z"/><path class="cls-1" d="M91.5,35.07a.94.94,0,0,1-.3-.71,1,1,0,0,1,2,0,.94.94,0,0,1-.29.71,1,1,0,0,1-1.43,0Zm0,2h1.41v8.23H91.51Z"/><path class="cls-1" d="M95.1,33.45h1.41V45.33H95.1Z"/><path class="cls-1" d="M98.57,33.45H100V45.33H98.57Z"/><path class="cls-1" d="M103,45.24a2.72,2.72,0,0,1-1.12-1,2.52,2.52,0,0,1-.41-1.43,2.37,2.37,0,0,1,1-2A4.12,4.12,0,0,1,105,40a5.34,5.34,0,0,1,1.38.16,4.2,4.2,0,0,1,1,.37v-.43a1.94,1.94,0,0,0-.3-1.07,2.06,2.06,0,0,0-.82-.73,2.58,2.58,0,0,0-3.27.88l-1.18-.78a3.56,3.56,0,0,1,1.37-1.18,4.06,4.06,0,0,1,1.9-.43,3.75,3.75,0,0,1,2.67.92,3.18,3.18,0,0,1,1,2.45v5.13h-1.35V44.12h-.06a3.39,3.39,0,0,1-1.08,1.05,2.94,2.94,0,0,1-1.58.43A3.63,3.63,0,0,1,103,45.24ZM106,44a2.73,2.73,0,0,0,1-.94,2.39,2.39,0,0,0,.37-1.3,3.85,3.85,0,0,0-2.14-.59,2.64,2.64,0,0,0-1.66.47,1.43,1.43,0,0,0-.63,1.2,1.34,1.34,0,0,0,.55,1.09,2,2,0,0,0,1.28.42A2.5,2.5,0,0,0,106,44Z"/><path class="cls-2" d="M12.53,12.78l8.55-4.93A4.21,4.21,0,1,0,16.87.56L2.1,9.09Z"/><path class="cls-3" d="M19,25.47a4.21,4.21,0,0,0,2.11-7.85L6.31,9.09A4.21,4.21,0,0,0,2.1,16.38L16.87,24.9A4.15,4.15,0,0,0,19,25.47Z"/><path class="cls-4" d="M33.66,25.47a4.1,4.1,0,0,0,2.1-.57l14.77-8.52L40.24,12.61l-8.68,5a4.21,4.21,0,0,0,2.1,7.85Z"/><path class="cls-5" d="M48.43,16.94a4.21,4.21,0,0,0,2.1-7.85L35.76.56a4.21,4.21,0,0,0-4.2,7.29l14.77,8.53A4.19,4.19,0,0,0,48.43,16.94Z"/></g></g></svg>