<?xml version="1.0" encoding="utf-8"?>
<svg viewBox="0 0 230 188" xmlns="http://www.w3.org/2000/svg" xmlns:bx="https://boxy-svg.com">
  <defs>
    <style bx:fonts="Open Sans">@import url(https://fonts.googleapis.com/css2?family=Open+Sans%3Aital%2Cwght%400%2C300%3B0%2C400%3B0%2C500%3B0%2C600%3B0%2C700%3B0%2C800%3B1%2C300%3B1%2C400%3B1%2C500%3B1%2C600%3B1%2C700%3B1%2C800&amp;display=swap);</style>
  </defs>
  <g transform="matrix(1, 0, 0, 1, 35.371006, 3.731443)">
    <path id="a" d="M 27.772 31.797 C 31.833 29.29 35.885 26.763 39.96 24.283 C 43.829 21.928 48.379 24.1 49.257 28.682 C 49.765 31.333 48.663 34.197 46.435 35.591 C 39.132 40.163 31.818 44.717 24.468 49.202 C 22.193 50.589 19.849 50.335 17.776 48.634 C 15.67 46.907 15.007 44.524 15.5 41.753 C 16.065 39.643 17.355 38.231 19.115 37.176 C 22.026 35.431 24.889 33.595 27.772 31.797" fill="#FBBC04" style=""/>
    <path id="b" d="M 30.755 29.974 C 26.703 27.449 22.641 24.943 18.604 22.391 C 14.772 19.969 14.246 14.649 17.502 11.541 C 19.384 9.744 22.244 9.337 24.481 10.712 C 31.819 15.221 39.147 19.749 46.437 24.345 C 48.693 25.768 49.659 28.075 49.325 30.855 C 48.986 33.678 47.397 35.486 44.917 36.413 C 42.933 36.944 41.151 36.448 39.419 35.337 C 36.557 33.502 33.645 31.757 30.755 29.974" fill="#0F9D58" style=""/>
    <path id="c" d="M -6.171 28.187 C -8.77 29.773 -11.372 31.357 -13.969 32.949 C -15.489 33.88 -16.991 34.843 -18.517 35.759 C -21.594 37.604 -25.25 36.522 -26.995 33.273 C -28.66 30.171 -27.702 26.152 -24.74 24.293 C -17.494 19.75 -10.231 15.24 -2.941 10.78 C -0.705 9.413 1.614 9.584 3.681 11.219 C 5.864 12.945 6.579 15.374 6.088 18.221 C 5.784 18.91 5.602 19.718 5.147 20.26 C 4.408 21.143 3.566 21.988 2.629 22.608 C -0.27 24.529 -3.232 26.336 -6.171 28.187" fill="#EA4335" style=""/>
    <path id="d" d="M -9.152 29.966 C -6.573 31.592 -3.995 33.221 -1.414 34.841 C 0.096 35.788 1.624 36.705 3.125 37.668 C 6.151 39.609 7.107 43.549 5.36 46.797 C 3.692 49.898 -0.027 51.018 -3.007 49.189 C -10.291 44.721 -17.558 40.218 -24.798 35.665 C -27.019 34.268 -28.04 32.025 -27.756 29.283 C -27.455 26.39 -25.855 24.511 -23.315 23.543 C -22.608 23.482 -21.867 23.247 -21.201 23.399 C -20.12 23.647 -19.018 24.007 -18.049 24.569 C -15.051 26.305 -12.113 28.159 -9.152 29.966" fill="#4285F4" style=""/>
    <text style="fill: rgb(78, 78, 78); font-family: &quot;Open Sans&quot;; font-size: 22px; font-weight: 600; white-space: pre;" x="46.966" y="26.27">GDG DevFest</text>
    <text style="fill: rgb(78, 78, 78); font-family: Arial, sans-serif; font-size: 21px; word-spacing: -5.1px; white-space: pre;" x="48.559" y="47.691">2023 Season</text>
  </g>
  <g transform="matrix(1, 0, 0, 1, 35.371006, 3.731443)">
    <text style="fill: rgb(78, 78, 78); font-family: &quot;Open Sans&quot;; font-size: 22px; font-weight: 600; white-space: pre;" x="46.843" y="89.199">GDG DevFest</text>
    <text style="fill: rgb(78, 78, 78); font-family: Arial, sans-serif; font-size: 21px; word-spacing: -5.1px; white-space: pre;" x="48.815" y="110.577">2023Season</text>
    <path id="path-1" d="M 28.282 93.769 C 32.343 91.262 36.395 88.735 40.47 86.255 C 44.339 83.9 48.889 86.072 49.767 90.654 C 50.275 93.305 49.173 96.169 46.945 97.563 C 39.642 102.135 32.328 106.689 24.978 111.174 C 22.703 112.561 20.359 112.307 18.286 110.606 C 16.18 108.879 15.517 106.496 16.01 103.725 C 16.575 101.615 17.865 100.203 19.625 99.148 C 22.536 97.403 25.399 95.567 28.282 93.769" style="fill: rgb(202, 202, 202);"/>
    <path id="path-2" d="M 31.265 91.946 C 27.213 89.421 23.151 86.915 19.114 84.363 C 15.282 81.941 14.756 76.621 18.012 73.513 C 19.894 71.716 22.754 71.309 24.991 72.684 C 32.329 77.193 39.657 81.721 46.947 86.317 C 49.203 87.74 50.169 90.047 49.835 92.827 C 49.496 95.65 47.907 97.458 45.427 98.385 C 43.443 98.916 41.661 98.42 39.929 97.309 C 37.067 95.474 34.155 93.729 31.265 91.946" style="fill: rgb(138, 138, 138);"/>
    <path id="path-3" d="M -5.661 90.159 C -8.26 91.745 -10.862 93.329 -13.459 94.921 C -14.979 95.852 -16.481 96.815 -18.007 97.731 C -21.084 99.576 -24.74 98.494 -26.485 95.245 C -28.15 92.143 -27.192 88.124 -24.23 86.265 C -16.984 81.722 -9.721 77.212 -2.431 72.752 C -0.195 71.385 2.124 71.556 4.191 73.191 C 6.374 74.917 7.089 77.346 6.598 80.193 C 6.294 80.882 6.112 81.69 5.657 82.232 C 4.918 83.115 4.076 83.96 3.139 84.58 C 0.24 86.501 -2.722 88.308 -5.661 90.159" style="fill: rgb(71, 71, 71);"/>
    <path id="path-4" d="M -8.642 91.938 C -6.063 93.564 -3.485 95.193 -0.904 96.813 C 0.606 97.76 2.134 98.677 3.635 99.64 C 6.661 101.581 7.617 105.521 5.87 108.769 C 4.202 111.87 0.483 112.99 -2.497 111.161 C -9.781 106.693 -17.048 102.19 -24.288 97.637 C -26.509 96.24 -27.53 93.997 -27.246 91.255 C -26.945 88.362 -25.345 86.483 -22.805 85.515 C -22.098 85.454 -21.357 85.219 -20.691 85.371 C -19.61 85.619 -18.508 85.979 -17.539 86.541 C -14.541 88.277 -11.603 90.131 -8.642 91.938" style="fill: rgb(131, 131, 131);"/>
  </g>
  <g transform="matrix(1, 0, 0, 1, 36.371006, 3.731443)">
    <text style="fill: rgb(230, 230, 229); font-family: &quot;Open Sans&quot;; font-size: 22px; font-weight: 600; white-space: pre;" x="47.027" y="152.181">GDG DevFest</text>
    <text style="fill: rgb(230, 230, 229); font-family: Arial, sans-serif; font-size: 21px; word-spacing: -5.1px; white-space: pre;" x="48.576" y="174.124">2023Season</text>
    <path id="path-5" d="M 27.589 156.875 C 31.65 154.368 35.702 151.841 39.777 149.361 C 43.646 147.006 48.196 149.178 49.074 153.76 C 49.582 156.411 48.48 159.275 46.252 160.669 C 38.949 165.241 31.635 169.795 24.285 174.28 C 22.01 175.667 19.666 175.413 17.593 173.712 C 15.487 171.985 14.824 169.602 15.317 166.831 C 15.882 164.721 17.172 163.309 18.932 162.254 C 21.843 160.509 24.706 158.673 27.589 156.875" fill="#FBBC04" style=""/>
    <path id="path-6" d="M 30.572 155.052 C 26.52 152.527 22.458 150.021 18.421 147.469 C 14.589 145.047 14.063 139.727 17.319 136.619 C 19.201 134.822 22.061 134.415 24.298 135.79 C 31.636 140.299 38.964 144.827 46.254 149.423 C 48.51 150.846 49.476 153.153 49.142 155.933 C 48.803 158.756 47.214 160.564 44.734 161.491 C 42.75 162.022 40.968 161.526 39.236 160.415 C 36.374 158.58 33.462 156.835 30.572 155.052" fill="#0F9D58" style=""/>
    <path id="path-7" d="M -6.354 153.265 C -8.953 154.851 -11.555 156.435 -14.152 158.027 C -15.672 158.958 -17.174 159.921 -18.7 160.837 C -21.777 162.682 -25.433 161.6 -27.178 158.351 C -28.843 155.249 -27.885 151.23 -24.923 149.371 C -17.677 144.828 -10.414 140.318 -3.124 135.858 C -0.888 134.491 1.431 134.662 3.498 136.297 C 5.681 138.023 6.396 140.452 5.905 143.299 C 5.601 143.988 5.419 144.796 4.964 145.338 C 4.225 146.221 3.383 147.066 2.446 147.686 C -0.453 149.607 -3.415 151.414 -6.354 153.265" fill="#EA4335" style=""/>
    <path id="path-8" d="M -9.335 155.044 C -6.756 156.67 -4.178 158.299 -1.597 159.919 C -0.087 160.866 1.441 161.783 2.942 162.746 C 5.968 164.687 6.924 168.627 5.177 171.875 C 3.509 174.976 -0.21 176.096 -3.19 174.267 C -10.474 169.799 -17.741 165.296 -24.981 160.743 C -27.202 159.346 -28.223 157.103 -27.939 154.361 C -27.638 151.468 -26.038 149.589 -23.498 148.621 C -22.791 148.56 -22.05 148.325 -21.384 148.477 C -20.303 148.725 -19.201 149.085 -18.232 149.647 C -15.234 151.383 -12.296 153.237 -9.335 155.044" fill="#4285F4" style=""/>
  </g>
</svg>